<svg xmlns="http://www.w3.org/2000/svg" xmlns:xlink="http://www.w3.org/1999/xlink" id="Layer_1" x="0" y="0" version="1.1" viewBox="0 0 500 500" xml:space="preserve" style="enable-background:new 0 0 500 500"><style type="text/css">.st0{fill:#f2f2f2}.st1{fill:#f7f7f7}</style><path d="M482.53,228.29c-0.21-0.08-0.43-0.16-0.64-0.24c4.34-11.28,6.52-23.83,5.92-37.2 c-1.97-44.32-34.92-80.91-76.32-84.57c-15.76-1.4-30.68,1.9-43.72,8.7c-16.27-32.52-48.35-54.66-85.28-54.66 c-48.45,0-88.58,38.09-95.56,87.77c-0.2,0-0.39-0.01-0.59-0.01c-42.1,0-76.24,34.13-76.24,76.24c0,0.65,0.01,1.3,0.02,1.94 c0.8,32,27.54,57.27,59.56,57.14l64.37-0.26l2.7-0.01l16.94-0.03v-0.01H410.2h63.25C503.04,283.1,510.46,238.72,482.53,228.29z" class="st0"/><path d="M447.95,312.74c-0.26-0.1-0.52-0.19-0.78-0.28c5.22-13.56,7.84-28.66,7.12-44.74 c-2.37-53.31-42-97.31-91.79-101.72c-18.95-1.68-36.91,2.28-52.58,10.46c-19.56-39.12-58.15-65.74-102.57-65.74 c-58.28,0-106.54,45.82-114.93,105.57c-0.24,0-0.47-0.01-0.71-0.01c-50.64,0-91.7,41.05-91.7,91.7c0,0.78,0.01,1.56,0.03,2.34 c0.96,38.49,33.13,68.89,71.63,68.73l77.42-0.32l3.24-0.01l20.38-0.04v-0.01h188.25h76.08 C472.61,378.66,481.53,325.28,447.95,312.74z" class="st1"/></svg>