<svg xmlns="http://www.w3.org/2000/svg" xmlns:xlink="http://www.w3.org/1999/xlink" id="Layer_1" x="0" y="0" version="1.1" viewBox="0 0 500 500" xml:space="preserve" style="enable-background:new 0 0 500 500"><style type="text/css">.st0{fill:#ffbe55}.st1{fill:#f7f7f7}</style><g><circle cx="115.27" cy="143.24" r="66.78" class="st0"/><g><path d="M115.27,64.11c2,0,3.98,0.1,5.94,0.25V36.89c0-2.67-2.16-4.83-4.83-4.83h-2.22c-2.67,0-4.83,2.16-4.83,4.83 v27.46C111.29,64.2,113.26,64.11,115.27,64.11z" class="st0"/><path d="M36.14,143.24c0-0.91,0.04-1.81,0.07-2.71H5.68c-2.67,0-4.83,2.16-4.83,4.83v2.22c0,2.67,2.16,4.83,4.83,4.83 h31C36.33,149.4,36.14,146.34,36.14,143.24z" class="st0"/><path d="M176.76,93.45l20.87-20.87c1.89-1.89,1.89-4.95,0-6.84l-1.64-1.64c-1.89-1.89-4.95-1.89-6.84,0l-20.62,20.62 C171.5,87.42,174.24,90.34,176.76,93.45z" class="st0"/><path d="M53.77,93.45c2.52-3.11,5.26-6.03,8.22-8.73L41.38,64.11c-1.89-1.89-4.95-1.89-6.84,0l-1.64,1.64 c-1.89,1.89-1.89,4.95,0,6.84L53.77,93.45z" class="st0"/><path d="M224.85,140.53h-30.52c0.03,0.9,0.07,1.8,0.07,2.71c0,3.11-0.2,6.16-0.55,9.18h31c2.67,0,4.83-2.16,4.83-4.83 v-2.22C229.68,142.69,227.52,140.53,224.85,140.53z" class="st0"/><path d="M173.78,196.51c-2.69,2.96-5.62,5.7-8.73,8.22l24.1,24.1c1.89,1.89,4.95,1.89,6.84,0l1.64-1.64 c1.89-1.89,1.89-4.95,0-6.84L173.78,196.51z" class="st0"/><path d="M56.75,196.51L32.9,220.36c-1.89,1.89-1.89,4.95,0,6.84l1.64,1.64c1.89,1.89,4.95,1.89,6.84,0l24.1-24.1 C62.37,202.21,59.45,199.47,56.75,196.51z" class="st0"/><path d="M115.27,222.37c-2,0-3.98-0.1-5.94-0.25v33.93c0,2.67,2.16,4.83,4.83,4.83h2.22c2.67,0,4.83-2.16,4.83-4.83 v-33.93C119.25,222.27,117.27,222.37,115.27,222.37z" class="st0"/></g></g><path d="M478.99,312.74c-0.26-0.1-0.52-0.19-0.78-0.28c5.22-13.56,7.84-28.66,7.12-44.74 c-2.37-53.31-42-97.31-91.79-101.72c-18.95-1.68-36.91,2.28-52.58,10.46c-19.56-39.12-58.15-65.74-102.57-65.74 c-58.28,0-106.54,45.82-114.93,105.57c-0.24,0-0.47-0.01-0.71-0.01c-50.64,0-91.7,41.05-91.7,91.7c0,0.78,0.01,1.56,0.03,2.34 c0.96,38.49,33.13,68.89,71.63,68.73l77.42-0.32l3.24-0.01l20.38-0.04v-0.01H392h76.08C503.66,378.66,512.58,325.28,478.99,312.74z" class="st1"/></svg>