<svg xmlns="http://www.w3.org/2000/svg" xmlns:xlink="http://www.w3.org/1999/xlink" id="Layer_1" x="0" y="0" version="1.1" viewBox="0 0 500 500" xml:space="preserve" style="enable-background:new 0 0 500 500"><style type="text/css">.st0{fill:#f7f7f7}.st1{fill:#cce9ff}</style><path d="M477.6,248.44c-0.27-0.1-0.55-0.2-0.83-0.3c5.56-14.46,8.36-30.56,7.59-47.7 c-2.53-56.84-44.78-103.76-97.87-108.46c-20.21-1.79-39.35,2.44-56.06,11.16c-20.86-41.71-62-70.1-109.36-70.1 c-62.14,0-113.59,48.85-122.54,112.56c-0.25,0-0.51-0.01-0.76-0.01c-54,0-97.77,43.77-97.77,97.77c0,0.83,0.01,1.66,0.03,2.49 c1.02,41.04,35.32,73.45,76.38,73.28l82.55-0.34l3.46-0.01l21.73-0.04v-0.01h200.71h81.11C503.9,318.73,513.41,261.81,477.6,248.44z" class="st0"/><path d="M93.58,382.1c-3.81,9.68-14.1,14.7-22.98,11.2s-12.99-14.18-9.18-23.86c3.81-9.68,28.89-26.21,28.89-26.21 S97.39,372.42,93.58,382.1z" class="st1"/><path d="M266.23,386.14c-3.81,9.68-14.1,14.7-22.98,11.2c-8.88-3.5-12.99-14.18-9.18-23.86s28.89-26.21,28.89-26.21 S270.04,376.46,266.23,386.14z" class="st1"/><path d="M179.9,462.1c-3.81,9.68-14.1,14.7-22.98,11.2c-8.88-3.5-12.99-14.18-9.18-23.86 c3.81-9.68,28.89-26.21,28.89-26.21S183.71,452.41,179.9,462.1z" class="st1"/><path d="M352.55,462.1c-3.81,9.68-14.1,14.7-22.98,11.2s-12.99-14.18-9.18-23.86c3.81-9.68,28.89-26.21,28.89-26.21 S356.36,452.41,352.55,462.1z" class="st1"/><path d="M438.87,386.14c-3.81,9.68-14.1,14.7-22.98,11.2s-12.99-14.18-9.18-23.86s28.89-26.21,28.89-26.21 S442.68,376.46,438.87,386.14z" class="st1"/></svg>