<svg xmlns="http://www.w3.org/2000/svg" xmlns:xlink="http://www.w3.org/1999/xlink" id="Layer_1" x="0" y="0" version="1.1" viewBox="0 0 500 500" xml:space="preserve" style="enable-background:new 0 0 500 500"><style type="text/css">.st0{fill:#f7f7f7}</style><path d="M477.54,248.44c-0.27-0.1-0.55-0.2-0.83-0.3c5.56-14.46,8.36-30.56,7.59-47.7 c-2.53-56.84-44.78-103.76-97.87-108.46c-20.21-1.79-39.35,2.44-56.06,11.16c-20.86-41.71-62-70.1-109.36-70.1 c-62.14,0-113.59,48.85-122.54,112.56c-0.25,0-0.51-0.01-0.76-0.01c-54,0-97.77,43.77-97.77,97.77c0,0.83,0.01,1.66,0.03,2.49 C1,286.89,35.3,319.3,76.35,319.13l82.55-0.34l3.46-0.01l21.73-0.04v-0.01H384.8h81.11C503.84,318.73,513.35,261.81,477.54,248.44z" class="st0"/><circle cx="107.96" cy="358.71" r="11.36" class="st0"/><circle cx="202.61" cy="358.71" r="11.36" class="st0"/><circle cx="297.27" cy="358.71" r="11.36" class="st0"/><circle cx="391.93" cy="358.71" r="11.36" class="st0"/><circle cx="155.29" cy="409.64" r="11.36" class="st0"/><circle cx="249.94" cy="409.64" r="11.36" class="st0"/><circle cx="344.6" cy="409.64" r="11.36" class="st0"/></svg>