<svg xmlns="http://www.w3.org/2000/svg" xmlns:xlink="http://www.w3.org/1999/xlink" id="Layer_1" x="0" y="0" version="1.1" viewBox="0 0 500 500" xml:space="preserve" style="enable-background:new 0 0 500 500"><style type="text/css">.st0{fill:#ffbe55}</style><g><circle cx="250" cy="243.31" r="145.92" class="st0"/><g><path d="M250,70.41c4.37,0,8.7,0.22,12.99,0.54V10.94c0-5.83-4.73-10.56-10.56-10.56h-4.85 c-5.83,0-10.56,4.73-10.56,10.56v60.01C241.3,70.63,245.63,70.41,250,70.41z" class="st0"/><path d="M77.1,243.31c0-1.99,0.08-3.95,0.15-5.92H10.56C4.73,237.39,0,242.12,0,247.95v4.85 c0,5.83,4.73,10.56,10.56,10.56h67.73C77.53,256.78,77.1,250.1,77.1,243.31z" class="st0"/><path d="M384.36,134.53l45.6-45.6c4.13-4.13,4.13-10.81,0-14.94l-3.57-3.57c-4.13-4.13-10.81-4.13-14.94,0 l-45.05,45.05C372.86,121.35,378.85,127.73,384.36,134.53z" class="st0"/><path d="M115.64,134.53c5.51-6.79,11.5-13.18,17.96-19.06L88.55,70.41c-4.13-4.13-10.81-4.13-14.94,0l-3.57,3.57 c-4.13,4.13-4.13,10.81,0,14.94L115.64,134.53z" class="st0"/><path d="M489.44,237.39h-66.68c0.07,1.97,0.15,3.94,0.15,5.92c0,6.79-0.43,13.47-1.19,20.05h67.73 c5.83,0,10.56-4.73,10.56-10.56v-4.85C500,242.12,495.27,237.39,489.44,237.39z" class="st0"/><path d="M377.85,359.71c-5.89,6.46-12.27,12.45-19.06,17.96l52.67,52.67c4.13,4.13,10.81,4.13,14.94,0l3.57-3.57 c4.13-4.13,4.13-10.81,0-14.94L377.85,359.71z" class="st0"/><path d="M122.15,359.71l-52.12,52.12c-4.13,4.13-4.13,10.81,0,14.94l3.57,3.57c4.13,4.13,10.81,4.13,14.94,0 l52.67-52.67C134.42,372.16,128.04,366.17,122.15,359.71z" class="st0"/><path d="M250,416.21c-4.37,0-8.7-0.22-12.99-0.54v74.13c0,5.83,4.73,10.56,10.56,10.56h4.85 c5.83,0,10.56-4.73,10.56-10.56v-74.13C258.7,416,254.37,416.21,250,416.21z" class="st0"/></g></g></svg>